<svg width="897" height="102" viewBox="0 0 897 102" fill="none" xmlns="http://www.w3.org/2000/svg">
<path d="M109.341 101V0H88.3413V101H109.341Z" fill="black"/>
<path d="M33.6892 101.242L0 44.0002V101.242H33.6892Z" fill="#01ADF9"/>
<path d="M0 20.0023V0.00232094H26C26 0.00232094 81.0964 -1.12279 83 49.0023C84.5 88.5002 45.5 98.5002 45.5 98.5002L35 80.5023C35 80.5023 62 75.5023 61 49.0023C59.6768 13.9381 22 18.5023 22 18.5023V58.0023L0 20.0023Z" fill="black"/>
<path d="M321.342 101V0H299.342V101H321.342Z" fill="black"/>
<path d="M690.673 101V19.5531H713.341V0H646.341L646.341 19.5531H669.075V101H690.673Z" fill="black"/>
<path fill-rule="evenodd" clip-rule="evenodd" d="M378.342 0C406.508 0 429.342 22.6096 429.342 50.5C429.342 78.3904 406.508 101 378.342 101C350.175 101 327.342 78.3904 327.342 50.5C327.342 22.6096 350.175 0 378.342 0ZM378.342 21.1182C361.954 21.1182 348.669 34.2729 348.669 50.5C348.669 66.7271 361.954 79.8818 378.342 79.8818C394.73 79.8818 408.015 66.7271 408.015 50.5C408.015 34.2729 394.73 21.1182 378.342 21.1182Z" fill="black"/>
<path fill-rule="evenodd" clip-rule="evenodd" d="M599.841 0C627.731 0 650.341 22.6096 650.341 50.5C650.341 78.3904 627.731 101 599.841 101C571.951 101 549.341 78.3904 549.341 50.5C549.341 22.6096 571.951 0 599.841 0ZM599.841 21.1182C583.614 21.1182 570.459 34.2729 570.459 50.5C570.459 66.7271 583.614 79.8818 599.841 79.8818C616.068 79.8818 629.223 66.7271 629.223 50.5C629.223 34.2729 616.068 21.1182 599.841 21.1182Z" fill="black"/>
<path fill-rule="evenodd" clip-rule="evenodd" d="M761.841 0C789.731 0 812.341 22.6096 812.341 50.5C812.341 78.3904 789.731 101 761.841 101C733.951 101 711.341 78.3904 711.341 50.5C711.341 22.6096 733.951 0 761.841 0ZM761.841 21.1182C745.614 21.1182 732.459 34.2729 732.459 50.5C732.459 66.7271 745.614 79.8818 761.841 79.8818C778.068 79.8818 791.223 66.7271 791.223 50.5C791.223 34.2729 778.068 21.1182 761.841 21.1182Z" fill="black"/>
<path d="M457.983 38.0771V101H436.342V0H457.983L498.693 78.0283L489.342 95.1194L457.983 38.0771Z" fill="black"/>
<path d="M506.522 63.7207L520.553 38.0771V101H542.342V0H520.553L496.973 43.0949L506.522 63.7207Z" fill="black"/>
<path d="M294 101H269.908L242.294 47.2454H253.583C253.583 47.2454 267.64 48 267.64 32.2778C267.64 16.5 253.727 17.4533 253.727 17.4533H237.519V101H215V0H256.309C275.5 2.49594e-06 290.159 11 290.159 31.9917C290.159 52.9834 278 58.5 270.446 62.356C270.264 62.4486 294 101 294 101Z" fill="black"/>
<path d="M897 101H872.908L845.294 47.2454H856.583C856.583 47.2454 870.64 48 870.64 32.2778C870.64 16.5 856.727 17.4533 856.727 17.4533H840.519V101H818V0H859.309C878.5 2.49594e-06 893.159 11 893.159 31.9917C893.159 52.9834 881 58.5 873.446 62.356C873.264 62.4486 897 101 897 101Z" fill="black"/>
<path d="M188.7 101H212.622C202.982 81.5891 163.108 1.25155 162.5 0L111.7 101H135.7L140.7 91.0003H169.837L160.498 70.6133L150.568 70.6337L162.173 48.1324L188.7 101Z" fill="black"/>
</svg>
